<svg width="1920" height="256" viewBox="0 0 1920 256" fill="none" xmlns="http://www.w3.org/2000/svg">
<path d="M0 248.345V5.74402H79.4029V181.444H241.25V248.345H0Z" fill="#05F4D4"/>
<path d="M398.693 255.103C294.625 255.103 251.038 211.178 251.038 129.748V5.74402H330.441V127.045C330.441 157.454 343.956 188.202 398.693 188.202C453.431 188.202 466.608 157.116 466.608 127.045V5.74402H546.349V129.748C546.349 211.178 502.424 255.103 398.693 255.103Z" fill="#05F4D4"/>
<path d="M724.211 255.103C626.9 255.103 563.04 204.758 563.04 127.045C563.04 50.0069 626.9 0 724.211 0C814.088 0 877.272 41.5598 883.692 103.731H799.221C795.167 82.7817 766.108 66.5632 724.211 66.5632C676.569 66.5632 645.821 90.891 645.821 127.045C645.821 163.536 676.569 188.202 724.211 188.202C766.108 188.202 795.167 171.983 799.221 150.697H883.692C877.272 213.543 814.088 255.103 724.211 255.103Z" fill="#05F4D4"/>
<path d="M900.278 248.345V5.74402H1097.94C1164.5 5.74402 1197.62 31.0854 1197.62 80.0786C1197.62 113.529 1179.37 135.492 1146.6 145.29C1177.68 147.318 1197.28 165.226 1197.28 194.959V248.345H1117.88V207.799C1117.88 186.174 1111.79 179.755 1090.17 179.755H979.68V248.345H900.278ZM979.68 116.232H1079.02C1100.31 116.232 1114.83 112.178 1114.83 92.5804C1114.83 72.9831 1100.31 69.2663 1079.02 69.2663H979.68V116.232Z" fill="#05F4D4"/>
<path d="M1361.66 255.103C1257.6 255.103 1214.01 211.178 1214.01 129.748V5.74402H1293.41V127.045C1293.41 157.454 1306.93 188.202 1361.66 188.202C1416.4 188.202 1429.58 157.116 1429.58 127.045V5.74402H1509.32V129.748C1509.32 211.178 1465.39 255.103 1361.66 255.103Z" fill="#05F4D4"/>
<path d="M1528.73 248.345V5.74402H1652.73L1724.7 156.778L1796.33 5.74402H1920V248.345H1840.6V81.0923L1761.53 248.345H1687.54L1608.13 81.0923V248.345H1528.73Z" fill="#05F4D4"/>
</svg>
